<svg viewBox="0 0 50 50" xmlns="http://www.w3.org/2000/svg" xmlns:xlink="http://www.w3.org/1999/xlink" id="Layer_1" overflow="hidden"><path d="M25.001 50.001C23.769 50.001 22.609 49.521 21.74 48.649L1.351 28.261C0.492 27.402 0 26.215 0 25 0 23.786 0.492 22.598 1.351 21.74L21.74 1.352C22.611 0.48 23.769 0 25.001 0 26.232 0 27.391 0.48 28.262 1.352L48.648 21.74C49.521 22.608 50 23.767 50 25 50 26.233 49.521 27.392 48.647 28.263L28.262 48.649C27.392 49.521 26.232 50.001 25.001 50.001" fill="#59B4D9"/><path d="M38.614 21.093C36.454 21.093 34.704 22.843 34.704 25.002 34.704 25.794 34.943 26.529 35.349 27.145L27.605 34.889C27.399 34.745 27.178 34.625 26.949 34.516L26.949 14.759C28.116 14.083 28.91 12.835 28.91 11.389 28.91 9.23 27.16 7.48 25 7.48 22.842 7.48 21.092 9.23 21.092 11.389 21.092 12.835 21.886 14.083 23.052 14.759L23.052 34.515C22.833 34.619 22.618 34.731 22.42 34.868L14.667 27.115C15.061 26.505 15.295 25.782 15.295 25.002 15.295 22.843 13.545 21.093 11.387 21.093 9.227 21.093 7.477 22.843 7.477 25.002 7.477 27.161 9.227 28.911 11.387 28.911 11.835 28.911 12.259 28.82 12.661 28.681L20.811 36.831C20.577 37.379 20.447 37.981 20.447 38.614 20.447 41.127 22.485 43.165 24.998 43.165 27.512 43.165 29.549 41.127 29.549 38.614 29.549 37.993 29.423 37.402 29.198 36.863L37.371 28.691C37.763 28.823 38.175 28.911 38.612 28.911 40.77 28.911 42.52 27.161 42.52 25.002 42.52 22.843 40.771 21.093 38.614 21.093Z" fill="#FFFFFF"/><rect x="31.006" y="8.226" width="2.523" height="20.676" fill="#FFFFFF" opacity="0.5" transform="matrix(-0.707 0.7072 -0.7072 -0.707 68.2099 8.8718)"/><rect x="16.487" y="8.242" width="2.524" height="20.677" fill="#FFFFFF" opacity="0.5" transform="matrix(0.7071 0.7071 -0.7071 0.7071 18.3355 -7.1088)"/><path d="M27.665 38.614C27.665 40.11 26.451 41.323 24.955 41.323 23.458 41.323 22.246 40.11 22.246 38.614 22.246 37.118 23.458 35.905 24.955 35.905 26.45 35.905 27.665 37.118 27.665 38.614" fill="#B8D432"/><path d="M27.174 11.389C27.174 12.59 26.201 13.563 25 13.563 23.799 13.563 22.826 12.59 22.826 11.389 22.826 10.188 23.799 9.215 25 9.215 26.201 9.215 27.174 10.188 27.174 11.389" fill="#B8D432"/><path d="M13.563 25.001C13.563 26.202 12.588 27.175 11.389 27.175 10.188 27.175 9.215 26.202 9.215 25.001 9.215 23.8 10.188 22.827 11.389 22.827 12.588 22.827 13.563 23.8 13.563 25.001" fill="#B8D432"/><path d="M40.788 25.001C40.788 26.202 39.813 27.175 38.613 27.175 37.413 27.175 36.439 26.202 36.439 25.001 36.439 23.8 37.413 22.827 38.613 22.827 39.813 22.827 40.788 23.8 40.788 25.001" fill="#B8D432"/><path d="M28.262 1.352C27.391 0.48 26.233 0 25.001 0 23.77 0 22.612 0.48 21.741 1.352L1.352 21.74C0.492 22.598 0 23.786 0 25 0 26.215 0.492 27.403 1.352 28.261L12.895 39.805 34.61 7.699 28.262 1.352Z" fill="#FFFFFF" opacity="0.1"/></svg>